Coordinates
version=1
nRows=4
nColumns=63
inDegrees=yes

Units are S.I. units (second, meters, Newtons, ...)
If the header above contains a line with 'inDegrees', this indicates whether rotational values are in degrees (yes) or radians (no).

endheader
time	pelvis_tilt	pelvis_list	pelvis_rotation	pelvis_tx	pelvis_ty	pelvis_tz	hip_flexion_r	hip_adduction_r	hip_rotation_r	knee_angle_r	knee_angle_r_beta	ankle_angle_r	subtalar_angle_r	mtp_angle_r	hip_flexion_l	hip_adduction_l	hip_rotation_l	knee_angle_l	knee_angle_l_beta	ankle_angle_l	subtalar_angle_l	mtp_angle_l	L5_S1_Flex_Ext	L5_S1_Lat_Bending	L5_S1_axial_rotation	L4_L5_Flex_Ext	L4_L5_Lat_Bending	L4_L5_axial_rotation	L3_L4_Flex_Ext	L3_L4_Lat_Bending	L3_L4_axial_rotation	L2_L3_Flex_Ext	L2_L3_Lat_Bending	L2_L3_axial_rotation	L1_L2_Flex_Ext	L1_L2_Lat_Bending	L1_L2_axial_rotation	L1_T12_Flex_Ext	L1_T12_Lat_Bending	L1_T12_axial_rotation	Abs_r3	Abs_r2	Abs_r1	Abs_t1	Abs_t2	neck_flexion	neck_bending	neck_rotation	arm_flex_r	arm_add_r	arm_rot_r	elbow_flex_r	pro_sup_r	wrist_flex_r	wrist_dev_r	arm_flex_l	arm_add_l	arm_rot_l	elbow_flex_l	pro_sup_l	wrist_flex_l	wrist_dev_l
      0.00000000	     -3.58251175	     -7.24811804	     90.76490015	      0.18796394	      0.41600756	      1.03492444	     16.99686011	     -4.27562288	     -9.50592887	     15.94441666	      0.27828257	     41.82255850	     17.99045599	      0.00000000	     15.52399506	      4.11534637	      5.83322170	     11.22078974	      0.19583973	     36.05249111	    -13.07752692	      0.00000000	      0.87639768	     -0.43936301	      0.71121895	      1.62755814	     -0.58435281	      0.75567013	      1.43983375	     -1.06826723	      0.75567013	      1.00163491	     -1.06826723	      0.62231658	      0.81382289	     -0.89594906	      0.57786540	      0.50077364	     -0.68057331	      0.53341421	      6.26002102	     -4.97016229	      3.95558642	      0.00000000	      0.00000000	     28.43152483	      5.59425282	      9.30642176	     18.38114773	      3.62023924	    206.26189050	      0.63424055	      7.00634347	     -9.73905078	     -3.51552967	     15.97543007	     -0.66160880	    182.35986195	      3.00000425	      2.58670049	     -5.06792922	     -6.29038841
      0.01694915	     -3.38988386	     -7.15114592	     90.68424520	      0.18734414	      0.41685642	      1.03481967	     16.82662426	     -4.10277548	     -9.23341017	     15.76647695	      0.27517693	     41.59074068	     17.82799873	      0.00000000	     15.33132902	      4.02297057	      6.27337999	     11.09730709	      0.19368455	     35.59977244	    -14.04152699	      0.00000000	      0.85937625	     -0.39809289	      0.74467117	      1.59594764	     -0.52946354	      0.79121312	      1.41186924	     -0.96792305	      0.79121312	      0.98218112	     -0.96792305	      0.65158727	      0.79801679	     -0.81179102	      0.60504533	      0.49104759	     -0.61664589	      0.55850338	      6.13843863	     -4.50330638	      4.14163764	      0.00000000	      0.00000000	     28.42759491	      5.44712327	      9.88816603	     18.57086502	      3.47266688	    204.41339023	      0.65670289	      4.61928206	     -8.51456883	     -4.33106648	     16.10570123	      0.05455156	    184.22521349	      2.46435773	      2.86348272	     -3.34645050	     -6.82484619
      0.03389831	     -3.38195535	     -7.11343906	     90.58369384	      0.18699213	      0.41745179	      1.03477583	     16.80536041	     -4.13713346	     -9.14920855	     15.79534153	      0.27568072	     41.57733453	     17.93272935	      0.00000000	     15.21994020	      4.06898629	      6.27064700	     11.00920566	      0.19214689	     35.30316330	    -14.48462907	      0.00000000	      0.85293273	     -0.38382033	      0.77591547	      1.58398137	     -0.51048104	      0.82441019	      1.40128318	     -0.93322074	      0.82441019	      0.97481682	     -0.93322074	      0.67892604	      0.79203333	     -0.78268641	      0.63043132	      0.48736576	     -0.59453769	      0.58193660	      6.09241320	     -4.34185231	      4.31540908	      0.00000000	      0.00000000	     28.42542233	      5.31492212	     10.19202427	     18.54447595	      3.38157737	    199.77498519	      0.72846645	      2.86428425	     -6.70036401	     -5.38790821	     16.23057412	      0.48097138	    185.60768159	      2.20538714	      2.75765731	     -2.68880137	     -7.41669861
      0.05084746	     -3.47517617	     -7.10285270	     90.42121748	      0.18704379	      0.41786627	      1.03476020	     16.85064059	     -4.23222135	     -8.97579814	     15.89147329	      0.27735853	     41.66924882	     18.02129329	      0.00000000	     15.12680449	      4.15583057	      5.93614469	     10.89977288	      0.19023692	     35.16087397	    -14.52405465	      0.00000000	      0.85258970	     -0.38955694	      0.83134250	      1.58334434	     -0.51811074	      0.88330141	      1.40071962	     -0.94716875	      0.88330141	      0.97442477	     -0.94716875	      0.72742469	      0.79171480	     -0.79438452	      0.67546578	      0.48716976	     -0.60342371	      0.62350687	      6.08996300	     -4.40674606	      4.62367758	      0.00000000	      0.00000000	     28.42497207	      5.03153070	      9.94020154	     18.30229022	      3.31914471	    191.88415903	      0.92770229	      2.16077876	     -4.45295151	     -6.58547436	     16.35124091	      0.67661969	    186.49697532	      2.08724184	      2.60948645	     -2.54814115	     -7.96016458
